<?xml version="1.0" encoding="UTF-8"?>
<!DOCTYPE svg PUBLIC "-//W3C//DTD SVG 1.1//EN" "http://www.w3.org/Graphics/SVG/1.1/DTD/svg11.dtd">
<svg version="1.1" xmlns="http://www.w3.org/2000/svg" xmlns:xlink="http://www.w3.org/1999/xlink" x="0" y="0" width="1024" height="1024" viewBox="0, 0, 1024, 1024">
  <g id="Layer_1">
    <path d="M0,0 L1024,0 L1024,1024 L0,1024 L0,0 z" fill="#3C5A96"/>
    <path d="M706.704,1024 L706.704,628.033 L839.812,628.033 L859.739,473.714 L706.704,473.714 L706.704,375.193 C706.704,330.514 719.126,300.066 783.291,300.066 L865.13,300.027 L865.13,162.009 C850.973,160.132 802.395,155.928 745.879,155.928 C627.887,155.928 547.114,227.842 547.114,359.913 L547.114,473.714 L413.665,473.714 L413.665,628.033 L547.114,628.033 L547.114,1024 L706.704,1024" fill="#FFFFFE"/>
  </g>
</svg>
